<mxfile host="Electron" agent="Mozilla/5.0 (Windows NT 10.0; Win64; x64) AppleWebKit/537.36 (KHTML, like Gecko) draw.io/26.2.2 Chrome/134.0.6998.178 Electron/35.1.2 Safari/537.36" version="26.2.2">
  <diagram name="Σελίδα-1" id="lDg-v396kHItLGcpea-5">
    <mxGraphModel dx="1585" dy="940" grid="1" gridSize="10" guides="1" tooltips="1" connect="1" arrows="1" fold="1" page="1" pageScale="1" pageWidth="827" pageHeight="1169" math="0" shadow="0">
      <root>
        <mxCell id="0" />
        <mxCell id="1" parent="0" />
        <mxCell id="cT3gamhLJcz5Im4jAsNJ-1" value="RooMate App" style="shape=rect;html=1;verticalAlign=top;fontStyle=1;whiteSpace=wrap;align=center;" parent="1" vertex="1">
          <mxGeometry x="250.5" y="30" width="990" height="1349" as="geometry" />
        </mxCell>
        <mxCell id="cT3gamhLJcz5Im4jAsNJ-2" value="user" style="shape=umlActor;html=1;verticalLabelPosition=bottom;verticalAlign=top;align=center;" parent="1" vertex="1">
          <mxGeometry x="170" y="730" width="30" height="60" as="geometry" />
        </mxCell>
        <mxCell id="cT3gamhLJcz5Im4jAsNJ-3" value="Landlord" style="shape=umlActor;html=1;verticalLabelPosition=bottom;verticalAlign=top;align=center;" parent="1" vertex="1">
          <mxGeometry x="150" y="120" width="30" height="60" as="geometry" />
        </mxCell>
        <mxCell id="cT3gamhLJcz5Im4jAsNJ-4" value="RooMate Auth" style="shape=umlActor;html=1;verticalLabelPosition=bottom;verticalAlign=top;align=center;" parent="1" vertex="1">
          <mxGeometry x="1300" y="150" width="30" height="60" as="geometry" />
        </mxCell>
        <mxCell id="cT3gamhLJcz5Im4jAsNJ-12" value="Ban Landlord" style="ellipse;whiteSpace=wrap;html=1;" parent="1" vertex="1">
          <mxGeometry x="1020" y="40" width="140" height="70" as="geometry" />
        </mxCell>
        <mxCell id="cT3gamhLJcz5Im4jAsNJ-14" value="Warning Landlord" style="ellipse;whiteSpace=wrap;html=1;" parent="1" vertex="1">
          <mxGeometry x="1020" y="120" width="140" height="70" as="geometry" />
        </mxCell>
        <mxCell id="cT3gamhLJcz5Im4jAsNJ-15" value="Validation" style="ellipse;whiteSpace=wrap;html=1;" parent="1" vertex="1">
          <mxGeometry x="1020" y="200" width="140" height="70" as="geometry" />
        </mxCell>
        <mxCell id="cT3gamhLJcz5Im4jAsNJ-16" value="" style="edgeStyle=none;html=1;endArrow=none;verticalAlign=bottom;rounded=0;entryX=0.5;entryY=0.5;entryDx=0;entryDy=0;entryPerimeter=0;" parent="1" source="cT3gamhLJcz5Im4jAsNJ-12" target="cT3gamhLJcz5Im4jAsNJ-4" edge="1">
          <mxGeometry width="160" relative="1" as="geometry">
            <mxPoint x="780" y="149.5" as="sourcePoint" />
            <mxPoint x="940" y="149.5" as="targetPoint" />
            <Array as="points" />
          </mxGeometry>
        </mxCell>
        <mxCell id="cT3gamhLJcz5Im4jAsNJ-17" value="" style="edgeStyle=none;html=1;endArrow=none;verticalAlign=bottom;rounded=0;entryX=0.5;entryY=0.5;entryDx=0;entryDy=0;entryPerimeter=0;" parent="1" source="cT3gamhLJcz5Im4jAsNJ-14" target="cT3gamhLJcz5Im4jAsNJ-4" edge="1">
          <mxGeometry width="160" relative="1" as="geometry">
            <mxPoint x="855" y="158" as="sourcePoint" />
            <mxPoint x="945" y="170" as="targetPoint" />
            <Array as="points" />
          </mxGeometry>
        </mxCell>
        <mxCell id="cT3gamhLJcz5Im4jAsNJ-18" value="" style="edgeStyle=none;html=1;endArrow=none;verticalAlign=bottom;rounded=0;entryX=0.5;entryY=0.5;entryDx=0;entryDy=0;entryPerimeter=0;" parent="1" source="cT3gamhLJcz5Im4jAsNJ-15" target="cT3gamhLJcz5Im4jAsNJ-4" edge="1">
          <mxGeometry width="160" relative="1" as="geometry">
            <mxPoint x="420" y="280" as="sourcePoint" />
            <mxPoint x="580" y="280" as="targetPoint" />
          </mxGeometry>
        </mxCell>
        <mxCell id="cT3gamhLJcz5Im4jAsNJ-21" value="Chat WithTennants&lt;div&gt;(User)&lt;/div&gt;" style="ellipse;whiteSpace=wrap;html=1;" parent="1" vertex="1">
          <mxGeometry x="330" y="200" width="120" height="80" as="geometry" />
        </mxCell>
        <mxCell id="cT3gamhLJcz5Im4jAsNJ-22" value="Create Appartment Ad" style="ellipse;whiteSpace=wrap;html=1;" parent="1" vertex="1">
          <mxGeometry x="330" y="290" width="120" height="80" as="geometry" />
        </mxCell>
        <mxCell id="cT3gamhLJcz5Im4jAsNJ-24" value="" style="edgeStyle=orthogonalEdgeStyle;html=1;endArrow=none;verticalAlign=bottom;rounded=0;exitX=0.5;exitY=0.5;exitDx=0;exitDy=0;exitPerimeter=0;" parent="1" source="cT3gamhLJcz5Im4jAsNJ-3" edge="1">
          <mxGeometry width="160" relative="1" as="geometry">
            <mxPoint x="170" y="149.5" as="sourcePoint" />
            <mxPoint x="880" y="235" as="targetPoint" />
            <Array as="points">
              <mxPoint x="490" y="150" />
              <mxPoint x="490" y="235" />
            </Array>
          </mxGeometry>
        </mxCell>
        <mxCell id="cT3gamhLJcz5Im4jAsNJ-25" value="" style="edgeStyle=none;html=1;endArrow=none;verticalAlign=bottom;rounded=0;exitX=0.5;exitY=0.5;exitDx=0;exitDy=0;exitPerimeter=0;" parent="1" source="cT3gamhLJcz5Im4jAsNJ-3" target="cT3gamhLJcz5Im4jAsNJ-21" edge="1">
          <mxGeometry width="160" relative="1" as="geometry">
            <mxPoint x="400" y="320" as="sourcePoint" />
            <mxPoint x="560" y="320" as="targetPoint" />
            <Array as="points">
              <mxPoint x="200" y="240" />
            </Array>
          </mxGeometry>
        </mxCell>
        <mxCell id="cT3gamhLJcz5Im4jAsNJ-26" value="" style="edgeStyle=none;html=1;endArrow=none;verticalAlign=bottom;rounded=0;exitX=0.5;exitY=0.5;exitDx=0;exitDy=0;exitPerimeter=0;" parent="1" source="cT3gamhLJcz5Im4jAsNJ-3" target="cT3gamhLJcz5Im4jAsNJ-22" edge="1">
          <mxGeometry width="160" relative="1" as="geometry">
            <mxPoint x="400" y="400" as="sourcePoint" />
            <mxPoint x="560" y="400" as="targetPoint" />
            <Array as="points">
              <mxPoint x="165" y="330" />
            </Array>
          </mxGeometry>
        </mxCell>
        <mxCell id="cT3gamhLJcz5Im4jAsNJ-30" value="Add Appartment Info" style="ellipse;whiteSpace=wrap;html=1;" parent="1" vertex="1">
          <mxGeometry x="750" y="295" width="140" height="70" as="geometry" />
        </mxCell>
        <mxCell id="cT3gamhLJcz5Im4jAsNJ-48" style="edgeStyle=none;rounded=0;orthogonalLoop=1;jettySize=auto;html=1;" parent="1" source="cT3gamhLJcz5Im4jAsNJ-22" target="cT3gamhLJcz5Im4jAsNJ-30" edge="1">
          <mxGeometry relative="1" as="geometry">
            <mxPoint x="470" y="515" as="sourcePoint" />
            <mxPoint x="607" y="481" as="targetPoint" />
          </mxGeometry>
        </mxCell>
        <mxCell id="cT3gamhLJcz5Im4jAsNJ-49" value="&amp;lt;&amp;lt;includes&amp;gt;&amp;gt;" style="edgeLabel;html=1;align=center;verticalAlign=middle;resizable=0;points=[];" parent="cT3gamhLJcz5Im4jAsNJ-48" vertex="1" connectable="0">
          <mxGeometry x="-0.0989" y="1" relative="1" as="geometry">
            <mxPoint as="offset" />
          </mxGeometry>
        </mxCell>
        <mxCell id="cT3gamhLJcz5Im4jAsNJ-51" style="edgeStyle=none;rounded=0;orthogonalLoop=1;jettySize=auto;html=1;exitX=1;exitY=0;exitDx=0;exitDy=0;" parent="1" source="cT3gamhLJcz5Im4jAsNJ-30" target="cT3gamhLJcz5Im4jAsNJ-15" edge="1">
          <mxGeometry relative="1" as="geometry">
            <mxPoint x="470" y="515" as="sourcePoint" />
            <mxPoint x="607" y="481" as="targetPoint" />
            <Array as="points">
              <mxPoint x="1090" y="305" />
            </Array>
          </mxGeometry>
        </mxCell>
        <mxCell id="cT3gamhLJcz5Im4jAsNJ-52" value="&amp;lt;&amp;lt;includes&amp;gt;&amp;gt;" style="edgeLabel;html=1;align=center;verticalAlign=middle;resizable=0;points=[];" parent="cT3gamhLJcz5Im4jAsNJ-51" vertex="1" connectable="0">
          <mxGeometry x="-0.0989" y="1" relative="1" as="geometry">
            <mxPoint as="offset" />
          </mxGeometry>
        </mxCell>
        <mxCell id="cT3gamhLJcz5Im4jAsNJ-53" style="edgeStyle=none;rounded=0;orthogonalLoop=1;jettySize=auto;html=1;" parent="1" target="cT3gamhLJcz5Im4jAsNJ-15" edge="1">
          <mxGeometry relative="1" as="geometry">
            <mxPoint x="880" y="235" as="sourcePoint" />
            <mxPoint x="751" y="280" as="targetPoint" />
          </mxGeometry>
        </mxCell>
        <mxCell id="cT3gamhLJcz5Im4jAsNJ-54" value="&amp;lt;&amp;lt;includes&amp;gt;&amp;gt;" style="edgeLabel;html=1;align=center;verticalAlign=middle;resizable=0;points=[];" parent="cT3gamhLJcz5Im4jAsNJ-53" vertex="1" connectable="0">
          <mxGeometry x="-0.0989" y="1" relative="1" as="geometry">
            <mxPoint as="offset" />
          </mxGeometry>
        </mxCell>
        <mxCell id="cT3gamhLJcz5Im4jAsNJ-60" style="edgeStyle=none;rounded=0;orthogonalLoop=1;jettySize=auto;html=1;exitX=1;exitY=0.5;exitDx=0;exitDy=0;" parent="1" source="cT3gamhLJcz5Im4jAsNJ-56" target="cT3gamhLJcz5Im4jAsNJ-58" edge="1">
          <mxGeometry relative="1" as="geometry" />
        </mxCell>
        <mxCell id="cT3gamhLJcz5Im4jAsNJ-61" style="edgeStyle=none;rounded=0;orthogonalLoop=1;jettySize=auto;html=1;exitX=1;exitY=0.5;exitDx=0;exitDy=0;" parent="1" source="cT3gamhLJcz5Im4jAsNJ-56" target="cT3gamhLJcz5Im4jAsNJ-59" edge="1">
          <mxGeometry relative="1" as="geometry" />
        </mxCell>
        <mxCell id="cT3gamhLJcz5Im4jAsNJ-56" value="Look For RooMate" style="ellipse;whiteSpace=wrap;html=1;" parent="1" vertex="1">
          <mxGeometry x="320" y="640" width="140" height="70" as="geometry" />
        </mxCell>
        <mxCell id="cT3gamhLJcz5Im4jAsNJ-57" value="" style="edgeStyle=none;html=1;endArrow=none;verticalAlign=bottom;rounded=0;exitX=0.5;exitY=0.5;exitDx=0;exitDy=0;exitPerimeter=0;" parent="1" source="cT3gamhLJcz5Im4jAsNJ-2" target="cT3gamhLJcz5Im4jAsNJ-56" edge="1">
          <mxGeometry width="160" relative="1" as="geometry">
            <mxPoint x="400" y="600" as="sourcePoint" />
            <mxPoint x="560" y="600" as="targetPoint" />
          </mxGeometry>
        </mxCell>
        <mxCell id="cT3gamhLJcz5Im4jAsNJ-66" style="edgeStyle=none;rounded=0;orthogonalLoop=1;jettySize=auto;html=1;exitX=1;exitY=0.5;exitDx=0;exitDy=0;" parent="1" source="cT3gamhLJcz5Im4jAsNJ-58" target="cT3gamhLJcz5Im4jAsNJ-65" edge="1">
          <mxGeometry relative="1" as="geometry" />
        </mxCell>
        <mxCell id="cT3gamhLJcz5Im4jAsNJ-67" value="&amp;lt;&amp;lt;includes&amp;gt;&amp;gt;" style="edgeLabel;html=1;align=center;verticalAlign=middle;resizable=0;points=[];" parent="cT3gamhLJcz5Im4jAsNJ-66" vertex="1" connectable="0">
          <mxGeometry x="0.25" y="-2" relative="1" as="geometry">
            <mxPoint as="offset" />
          </mxGeometry>
        </mxCell>
        <mxCell id="cT3gamhLJcz5Im4jAsNJ-73" style="edgeStyle=none;rounded=0;orthogonalLoop=1;jettySize=auto;html=1;exitX=1;exitY=0.5;exitDx=0;exitDy=0;" parent="1" source="cT3gamhLJcz5Im4jAsNJ-58" target="cT3gamhLJcz5Im4jAsNJ-72" edge="1">
          <mxGeometry relative="1" as="geometry" />
        </mxCell>
        <mxCell id="cT3gamhLJcz5Im4jAsNJ-74" value="&amp;lt;&amp;lt;includes&amp;gt;&amp;gt;" style="edgeLabel;html=1;align=center;verticalAlign=middle;resizable=0;points=[];" parent="cT3gamhLJcz5Im4jAsNJ-73" vertex="1" connectable="0">
          <mxGeometry x="-0.0403" relative="1" as="geometry">
            <mxPoint as="offset" />
          </mxGeometry>
        </mxCell>
        <mxCell id="cT3gamhLJcz5Im4jAsNJ-58" value="Like&amp;nbsp;" style="ellipse;whiteSpace=wrap;html=1;" parent="1" vertex="1">
          <mxGeometry x="590" y="600" width="140" height="70" as="geometry" />
        </mxCell>
        <mxCell id="cT3gamhLJcz5Im4jAsNJ-68" style="edgeStyle=none;rounded=0;orthogonalLoop=1;jettySize=auto;html=1;exitX=1;exitY=0.5;exitDx=0;exitDy=0;" parent="1" source="cT3gamhLJcz5Im4jAsNJ-59" target="cT3gamhLJcz5Im4jAsNJ-72" edge="1">
          <mxGeometry relative="1" as="geometry" />
        </mxCell>
        <mxCell id="cT3gamhLJcz5Im4jAsNJ-69" value="&amp;lt;&amp;lt;includes&amp;gt;&amp;gt;" style="edgeLabel;html=1;align=center;verticalAlign=middle;resizable=0;points=[];" parent="cT3gamhLJcz5Im4jAsNJ-68" vertex="1" connectable="0">
          <mxGeometry x="-0.0439" y="-2" relative="1" as="geometry">
            <mxPoint as="offset" />
          </mxGeometry>
        </mxCell>
        <mxCell id="cT3gamhLJcz5Im4jAsNJ-59" value="Skip/Not Recommend Similar Choices" style="ellipse;whiteSpace=wrap;html=1;" parent="1" vertex="1">
          <mxGeometry x="590" y="680" width="140" height="70" as="geometry" />
        </mxCell>
        <mxCell id="cT3gamhLJcz5Im4jAsNJ-65" value="Sent Match Request" style="ellipse;whiteSpace=wrap;html=1;" parent="1" vertex="1">
          <mxGeometry x="840" y="530" width="120" height="80" as="geometry" />
        </mxCell>
        <mxCell id="cT3gamhLJcz5Im4jAsNJ-70" value="Reason Skipped" style="ellipse;whiteSpace=wrap;html=1;" parent="1" vertex="1">
          <mxGeometry x="840" y="700" width="140" height="70" as="geometry" />
        </mxCell>
        <mxCell id="cT3gamhLJcz5Im4jAsNJ-71" value="&amp;lt;&amp;lt;extend&amp;gt;&amp;gt;" style="edgeStyle=none;html=1;startArrow=open;endArrow=none;startSize=12;verticalAlign=bottom;dashed=1;labelBackgroundColor=none;rounded=0;" parent="1" source="cT3gamhLJcz5Im4jAsNJ-59" target="cT3gamhLJcz5Im4jAsNJ-70" edge="1">
          <mxGeometry width="160" relative="1" as="geometry">
            <mxPoint x="630" y="600" as="sourcePoint" />
            <mxPoint x="790" y="600" as="targetPoint" />
          </mxGeometry>
        </mxCell>
        <mxCell id="cT3gamhLJcz5Im4jAsNJ-72" value="Show Next User" style="ellipse;whiteSpace=wrap;html=1;" parent="1" vertex="1">
          <mxGeometry x="1030" y="610" width="120" height="80" as="geometry" />
        </mxCell>
        <mxCell id="cT3gamhLJcz5Im4jAsNJ-85" style="edgeStyle=none;rounded=0;orthogonalLoop=1;jettySize=auto;html=1;exitX=1;exitY=0.5;exitDx=0;exitDy=0;" parent="1" source="cT3gamhLJcz5Im4jAsNJ-75" target="cT3gamhLJcz5Im4jAsNJ-77" edge="1">
          <mxGeometry relative="1" as="geometry" />
        </mxCell>
        <mxCell id="cT3gamhLJcz5Im4jAsNJ-86" style="edgeStyle=none;rounded=0;orthogonalLoop=1;jettySize=auto;html=1;exitX=1;exitY=0.5;exitDx=0;exitDy=0;" parent="1" source="cT3gamhLJcz5Im4jAsNJ-75" target="cT3gamhLJcz5Im4jAsNJ-79" edge="1">
          <mxGeometry relative="1" as="geometry" />
        </mxCell>
        <mxCell id="cT3gamhLJcz5Im4jAsNJ-75" value="See Match Requests" style="ellipse;whiteSpace=wrap;html=1;" parent="1" vertex="1">
          <mxGeometry x="320" y="770" width="140" height="70" as="geometry" />
        </mxCell>
        <mxCell id="cT3gamhLJcz5Im4jAsNJ-76" value="" style="edgeStyle=none;html=1;endArrow=none;verticalAlign=bottom;rounded=0;exitX=0.5;exitY=0.5;exitDx=0;exitDy=0;exitPerimeter=0;" parent="1" source="cT3gamhLJcz5Im4jAsNJ-2" target="cT3gamhLJcz5Im4jAsNJ-75" edge="1">
          <mxGeometry width="160" relative="1" as="geometry">
            <mxPoint x="450" y="810" as="sourcePoint" />
            <mxPoint x="610" y="810" as="targetPoint" />
          </mxGeometry>
        </mxCell>
        <mxCell id="cT3gamhLJcz5Im4jAsNJ-89" style="edgeStyle=none;rounded=0;orthogonalLoop=1;jettySize=auto;html=1;exitX=1;exitY=0.5;exitDx=0;exitDy=0;" parent="1" source="cT3gamhLJcz5Im4jAsNJ-77" target="cT3gamhLJcz5Im4jAsNJ-88" edge="1">
          <mxGeometry relative="1" as="geometry" />
        </mxCell>
        <mxCell id="cT3gamhLJcz5Im4jAsNJ-90" value="&amp;lt;&amp;lt;includes&amp;gt;&amp;gt;" style="edgeLabel;html=1;align=center;verticalAlign=middle;resizable=0;points=[];" parent="cT3gamhLJcz5Im4jAsNJ-89" vertex="1" connectable="0">
          <mxGeometry x="0.0509" y="-1" relative="1" as="geometry">
            <mxPoint as="offset" />
          </mxGeometry>
        </mxCell>
        <mxCell id="cT3gamhLJcz5Im4jAsNJ-77" value="Approve Match" style="ellipse;whiteSpace=wrap;html=1;" parent="1" vertex="1">
          <mxGeometry x="590" y="850" width="140" height="70" as="geometry" />
        </mxCell>
        <mxCell id="cT3gamhLJcz5Im4jAsNJ-78" value="Dissplay No Matches" style="ellipse;whiteSpace=wrap;html=1;" parent="1" vertex="1">
          <mxGeometry x="590" y="770" width="140" height="70" as="geometry" />
        </mxCell>
        <mxCell id="cT3gamhLJcz5Im4jAsNJ-79" value="Decline Match" style="ellipse;whiteSpace=wrap;html=1;" parent="1" vertex="1">
          <mxGeometry x="590" y="940" width="140" height="70" as="geometry" />
        </mxCell>
        <mxCell id="cT3gamhLJcz5Im4jAsNJ-88" value="Create Chat Contact" style="ellipse;whiteSpace=wrap;html=1;" parent="1" vertex="1">
          <mxGeometry x="850" y="850" width="140" height="70" as="geometry" />
        </mxCell>
        <mxCell id="cT3gamhLJcz5Im4jAsNJ-91" value="Say The Reason" style="ellipse;whiteSpace=wrap;html=1;" parent="1" vertex="1">
          <mxGeometry x="850" y="940" width="140" height="70" as="geometry" />
        </mxCell>
        <mxCell id="cT3gamhLJcz5Im4jAsNJ-92" value="&amp;lt;&amp;lt;extend&amp;gt;&amp;gt;" style="edgeStyle=none;html=1;startArrow=open;endArrow=none;startSize=12;verticalAlign=bottom;dashed=1;labelBackgroundColor=none;rounded=0;" parent="1" source="cT3gamhLJcz5Im4jAsNJ-79" target="cT3gamhLJcz5Im4jAsNJ-91" edge="1">
          <mxGeometry width="160" relative="1" as="geometry">
            <mxPoint x="660" y="940" as="sourcePoint" />
            <mxPoint x="820" y="940" as="targetPoint" />
          </mxGeometry>
        </mxCell>
        <mxCell id="cT3gamhLJcz5Im4jAsNJ-94" value="Chat With Match" style="ellipse;whiteSpace=wrap;html=1;" parent="1" vertex="1">
          <mxGeometry x="320" y="1040" width="140" height="70" as="geometry" />
        </mxCell>
        <mxCell id="cT3gamhLJcz5Im4jAsNJ-95" value="No Matches Yet" style="ellipse;whiteSpace=wrap;html=1;" parent="1" vertex="1">
          <mxGeometry x="590" y="1020" width="140" height="70" as="geometry" />
        </mxCell>
        <mxCell id="cT3gamhLJcz5Im4jAsNJ-96" value="&amp;lt;&amp;lt;extend&amp;gt;&amp;gt;" style="edgeStyle=none;html=1;startArrow=open;endArrow=none;startSize=12;verticalAlign=bottom;dashed=1;labelBackgroundColor=none;rounded=0;exitX=1;exitY=0.5;exitDx=0;exitDy=0;" parent="1" source="cT3gamhLJcz5Im4jAsNJ-75" target="cT3gamhLJcz5Im4jAsNJ-78" edge="1">
          <mxGeometry width="160" relative="1" as="geometry">
            <mxPoint x="470" y="789" as="sourcePoint" />
            <mxPoint x="630" y="789" as="targetPoint" />
          </mxGeometry>
        </mxCell>
        <mxCell id="cT3gamhLJcz5Im4jAsNJ-97" value="&amp;lt;&amp;lt;extend&amp;gt;&amp;gt;" style="edgeStyle=none;html=1;startArrow=open;endArrow=none;startSize=12;verticalAlign=bottom;dashed=1;labelBackgroundColor=none;rounded=0;exitX=1;exitY=0.5;exitDx=0;exitDy=0;" parent="1" source="cT3gamhLJcz5Im4jAsNJ-94" target="cT3gamhLJcz5Im4jAsNJ-95" edge="1">
          <mxGeometry width="160" relative="1" as="geometry">
            <mxPoint x="480" y="1074.5" as="sourcePoint" />
            <mxPoint x="620" y="1075" as="targetPoint" />
          </mxGeometry>
        </mxCell>
        <mxCell id="cT3gamhLJcz5Im4jAsNJ-107" style="edgeStyle=none;rounded=0;orthogonalLoop=1;jettySize=auto;html=1;exitX=1;exitY=0.5;exitDx=0;exitDy=0;" parent="1" source="cT3gamhLJcz5Im4jAsNJ-98" target="cT3gamhLJcz5Im4jAsNJ-104" edge="1">
          <mxGeometry relative="1" as="geometry" />
        </mxCell>
        <mxCell id="cT3gamhLJcz5Im4jAsNJ-108" value="&amp;lt;&amp;lt;includes&amp;gt;&amp;gt;" style="edgeLabel;html=1;align=center;verticalAlign=middle;resizable=0;points=[];" parent="cT3gamhLJcz5Im4jAsNJ-107" vertex="1" connectable="0">
          <mxGeometry x="-0.1057" y="-1" relative="1" as="geometry">
            <mxPoint as="offset" />
          </mxGeometry>
        </mxCell>
        <mxCell id="cT3gamhLJcz5Im4jAsNJ-98" value="Open A Chat" style="ellipse;whiteSpace=wrap;html=1;" parent="1" vertex="1">
          <mxGeometry x="840" y="1099" width="140" height="70" as="geometry" />
        </mxCell>
        <mxCell id="cT3gamhLJcz5Im4jAsNJ-99" value="View Matches" style="ellipse;whiteSpace=wrap;html=1;" parent="1" vertex="1">
          <mxGeometry x="590" y="1099" width="140" height="70" as="geometry" />
        </mxCell>
        <mxCell id="cT3gamhLJcz5Im4jAsNJ-103" value="&amp;lt;&amp;lt;extend&amp;gt;&amp;gt;" style="edgeStyle=none;html=1;startArrow=open;endArrow=none;startSize=12;verticalAlign=bottom;dashed=1;labelBackgroundColor=none;rounded=0;entryX=0;entryY=0.5;entryDx=0;entryDy=0;exitX=1;exitY=0.5;exitDx=0;exitDy=0;" parent="1" source="cT3gamhLJcz5Im4jAsNJ-99" target="cT3gamhLJcz5Im4jAsNJ-98" edge="1">
          <mxGeometry width="160" relative="1" as="geometry">
            <mxPoint x="660" y="1170" as="sourcePoint" />
            <mxPoint x="820" y="1170" as="targetPoint" />
          </mxGeometry>
        </mxCell>
        <mxCell id="cT3gamhLJcz5Im4jAsNJ-104" value="Read Messages" style="ellipse;whiteSpace=wrap;html=1;" parent="1" vertex="1">
          <mxGeometry x="1050" y="1060" width="140" height="70" as="geometry" />
        </mxCell>
        <mxCell id="cT3gamhLJcz5Im4jAsNJ-106" value="&amp;lt;&amp;lt;extend&amp;gt;&amp;gt;" style="edgeStyle=none;html=1;startArrow=open;endArrow=none;startSize=12;verticalAlign=bottom;dashed=1;labelBackgroundColor=none;rounded=0;" parent="1" source="cT3gamhLJcz5Im4jAsNJ-94" target="cT3gamhLJcz5Im4jAsNJ-99" edge="1">
          <mxGeometry width="160" relative="1" as="geometry">
            <mxPoint x="470" y="1085" as="sourcePoint" />
            <mxPoint x="601" y="1072" as="targetPoint" />
          </mxGeometry>
        </mxCell>
        <mxCell id="cT3gamhLJcz5Im4jAsNJ-109" value="Send Message" style="ellipse;whiteSpace=wrap;html=1;" parent="1" vertex="1">
          <mxGeometry x="1050" y="1140" width="140" height="70" as="geometry" />
        </mxCell>
        <mxCell id="cT3gamhLJcz5Im4jAsNJ-110" value="&amp;lt;&amp;lt;extend&amp;gt;&amp;gt;" style="edgeStyle=none;html=1;startArrow=open;endArrow=none;startSize=12;verticalAlign=bottom;dashed=1;labelBackgroundColor=none;rounded=0;" parent="1" source="cT3gamhLJcz5Im4jAsNJ-98" target="cT3gamhLJcz5Im4jAsNJ-109" edge="1">
          <mxGeometry width="160" relative="1" as="geometry">
            <mxPoint x="920" y="1030" as="sourcePoint" />
            <mxPoint x="1080" y="1030" as="targetPoint" />
          </mxGeometry>
        </mxCell>
        <mxCell id="cT3gamhLJcz5Im4jAsNJ-111" value="Edit Profile" style="ellipse;whiteSpace=wrap;html=1;" parent="1" vertex="1">
          <mxGeometry x="320" y="1210" width="140" height="70" as="geometry" />
        </mxCell>
        <mxCell id="cT3gamhLJcz5Im4jAsNJ-113" value="" style="edgeStyle=none;html=1;endArrow=none;verticalAlign=bottom;rounded=0;exitX=0.5;exitY=0.5;exitDx=0;exitDy=0;exitPerimeter=0;entryX=0;entryY=0.5;entryDx=0;entryDy=0;" parent="1" source="cT3gamhLJcz5Im4jAsNJ-2" target="cT3gamhLJcz5Im4jAsNJ-94" edge="1">
          <mxGeometry width="160" relative="1" as="geometry">
            <mxPoint x="310" y="950" as="sourcePoint" />
            <mxPoint x="470" y="950" as="targetPoint" />
          </mxGeometry>
        </mxCell>
        <mxCell id="cT3gamhLJcz5Im4jAsNJ-114" value="" style="edgeStyle=none;html=1;endArrow=none;verticalAlign=bottom;rounded=0;exitX=0.5;exitY=0.5;exitDx=0;exitDy=0;exitPerimeter=0;entryX=0;entryY=0.5;entryDx=0;entryDy=0;" parent="1" source="cT3gamhLJcz5Im4jAsNJ-2" target="cT3gamhLJcz5Im4jAsNJ-111" edge="1">
          <mxGeometry width="160" relative="1" as="geometry">
            <mxPoint x="310" y="950" as="sourcePoint" />
            <mxPoint x="470" y="950" as="targetPoint" />
          </mxGeometry>
        </mxCell>
        <mxCell id="6kk8CzSJ9CFg4ynsYoBJ-3" value="" style="edgeStyle=none;html=1;endArrow=block;endFill=0;endSize=12;verticalAlign=bottom;rounded=0;exitX=0.5;exitY=0.5;exitDx=0;exitDy=0;exitPerimeter=0;entryX=0.5;entryY=0;entryDx=0;entryDy=0;entryPerimeter=0;" parent="1" source="cT3gamhLJcz5Im4jAsNJ-3" target="cT3gamhLJcz5Im4jAsNJ-2" edge="1">
          <mxGeometry width="160" relative="1" as="geometry">
            <mxPoint x="450" y="260" as="sourcePoint" />
            <mxPoint x="610" y="260" as="targetPoint" />
            <Array as="points">
              <mxPoint x="90" y="150" />
              <mxPoint x="90" y="400" />
              <mxPoint x="185" y="400" />
            </Array>
          </mxGeometry>
        </mxCell>
        <mxCell id="xrxIlR6PT2CshjgiTG43-1" value="Report User" style="ellipse;whiteSpace=wrap;html=1;" vertex="1" parent="1">
          <mxGeometry x="1060" y="1230" width="140" height="70" as="geometry" />
        </mxCell>
        <mxCell id="xrxIlR6PT2CshjgiTG43-2" value="&amp;lt;&amp;lt;extend&amp;gt;&amp;gt;" style="edgeStyle=none;html=1;startArrow=open;endArrow=none;startSize=12;verticalAlign=bottom;dashed=1;labelBackgroundColor=none;rounded=0;" edge="1" parent="1" source="cT3gamhLJcz5Im4jAsNJ-98" target="xrxIlR6PT2CshjgiTG43-1">
          <mxGeometry width="160" relative="1" as="geometry">
            <mxPoint x="540" y="1150" as="sourcePoint" />
            <mxPoint x="700" y="1150" as="targetPoint" />
          </mxGeometry>
        </mxCell>
      </root>
    </mxGraphModel>
  </diagram>
</mxfile>
